<svg xmlns="http://www.w3.org/2000/svg" width="153.516" height="69.799" viewBox="0 0 153.516 69.799">
  <g id="car_2_" data-name="car (2)" transform="translate(0 0)">
    <path id="Path_61742" data-name="Path 61742" d="M104.288,300.318c0,7.008-6.248,12.691-13.956,12.691s-13.956-5.682-13.956-12.691,6.248-12.691,13.956-12.691S104.288,293.309,104.288,300.318Z" transform="translate(-55.442 -243.209)" fill="#1e1e1e" fill-rule="evenodd"/>
    <path id="Path_61743" data-name="Path 61743" d="M373.724,300.318c0,7.008-6.248,12.691-13.956,12.691s-13.956-5.682-13.956-12.691,6.248-12.691,13.956-12.691S373.724,293.309,373.724,300.318Z" transform="translate(-241.143 -243.209)" fill="#1e1e1e" fill-rule="evenodd"/>
    <path id="Path_61744" data-name="Path 61744" d="M70.074,170.085V151.049h23.9a6.644,6.644,0,0,1,4.885,1.9L117.7,170.085H70.074Zm-6.978,0H18.96L37.8,152.952a7.24,7.24,0,0,1,4.885-1.9H63.1Zm81.991,0H130.608a6.643,6.643,0,0,1-4.885-1.9l-21.981-19.829A14.579,14.579,0,0,0,93.8,144.7H42.685a14.9,14.9,0,0,0-9.944,3.649L11.11,168.181a6.076,6.076,0,0,0-2.093,4.6v16.34c0,6.98,6.28,12.691,13.956,12.691h1.745c0-9.677,8.548-17.45,19.189-17.45S63.1,192.135,63.1,201.812h45.357c0-9.677,8.548-17.45,19.189-17.45s19.189,7.773,19.189,17.45h8.722c3.838,0,6.978-2.856,6.978-6.345v-9.518c0-8.725-7.85-15.863-17.445-15.863Z" transform="translate(-9.017 -144.703)" fill="#1e1e1e" fill-rule="evenodd"/>
  </g>
</svg>
