<svg id="chat" xmlns="http://www.w3.org/2000/svg" width="170.36" height="115.28" viewBox="0 0 170.36 115.28">
  <g id="Group_69628" data-name="Group 69628" transform="translate(2.496 2.496)">
    <g id="Group_69626" data-name="Group 69626">
      <path id="Path_61660" data-name="Path 61660" d="M312.042,186.617c0-20.6-21.484-37.3-47.985-37.3s-47.985,16.7-47.985,37.3,21.484,37.3,47.985,37.3h.195a3.645,3.645,0,0,1,3.175,1.812c6.224,10.785,20.993,13.539,26.79,14.214a1.126,1.126,0,0,0,1.082-1.727,52.214,52.214,0,0,1-7.059-16.272,3.664,3.664,0,0,1,1.936-4.035C303.337,211.262,312.042,199.73,312.042,186.617Z" transform="translate(-146.673 -129.667)" fill="#ffe07d"/>
      <path id="Path_61661" data-name="Path 61661" d="M365.391,217.914c13.162-6.652,21.867-18.184,21.867-31.3,0-20.6-21.484-37.3-47.985-37.3a61.4,61.4,0,0,0-10.479.895c21.461,3.717,37.507,18.605,37.507,36.409,0,13.113-8.705,24.646-21.867,31.3a3.664,3.664,0,0,0-1.936,4.035,40.656,40.656,0,0,0,1.99,6.462c6.927,8.576,19.661,10.921,24.944,11.537a1.126,1.126,0,0,0,1.082-1.727,52.22,52.22,0,0,1-7.059-16.272A3.664,3.664,0,0,1,365.391,217.914Z" transform="translate(-221.888 -129.667)" fill="#ffd064"/>
      <path id="Path_61662" data-name="Path 61662" d="M70.541,90.269C35.724,90.269,7.5,112.211,7.5,139.278c0,11.541,5.132,22.15,13.718,30.523a3.9,3.9,0,0,1,1.022,3.823c-3.02,11.065-10.013,20.929-13.158,24.982a1.21,1.21,0,0,0,.986,1.952c6.976-.174,26.547-1.736,38.4-13.386a3.928,3.928,0,0,1,3.665-1.011,79.821,79.821,0,0,0,18.411,2.126c34.816,0,63.041-21.942,63.041-49.009S105.357,90.269,70.541,90.269Z" transform="translate(-7.5 -90.269)" fill="#95d6a4"/>
      <g id="Group_69625" data-name="Group 69625" transform="translate(1.325 0)">
        <path id="Path_61663" data-name="Path 61663" d="M34.7,364.623c-7.083,7.541-11.143,10.83-21.714,14.222-.457.621-.876,1.174-1.242,1.645a1.21,1.21,0,0,0,.986,1.951c6.976-.174,26.547-1.736,38.4-13.386a3.928,3.928,0,0,1,3.666-1.011l-.009-.017a72.911,72.911,0,0,1-13.624-4.661,5.634,5.634,0,0,0-6.459,1.256Z" transform="translate(-11.483 -272.154)" fill="#78c2a4"/>
        <path id="Path_61664" data-name="Path 61664" d="M175.95,90.269a81.2,81.2,0,0,0-10.479.678c29.828,3.88,52.563,24.04,52.563,48.331s-22.722,44.44-52.54,48.328a81.077,81.077,0,0,0,10.456.681c34.816,0,63.041-21.942,63.041-49.009S210.766,90.269,175.95,90.269Z" transform="translate(-114.234 -90.269)" fill="#78c2a4"/>
      </g>
    </g>
    <g id="Group_69627" data-name="Group 69627" transform="translate(18.056 42.578)">
      <circle id="Ellipse_684" data-name="Ellipse 684" cx="6.153" cy="6.153" r="6.153" fill="#f0f7ff"/>
      <circle id="Ellipse_685" data-name="Ellipse 685" cx="6.153" cy="6.153" r="6.153" transform="translate(24.673)" fill="#f0f7ff"/>
      <circle id="Ellipse_686" data-name="Ellipse 686" cx="6.153" cy="6.153" r="6.153" transform="translate(49.347)" fill="#f0f7ff"/>
      <circle id="Ellipse_687" data-name="Ellipse 687" cx="6.153" cy="6.153" r="6.153" transform="translate(74.02)" fill="#f0f7ff"/>
    </g>
  </g>
  <g id="Group_69629" data-name="Group 69629" transform="translate(0 0)">
    <path id="Path_61665" data-name="Path 61665" d="M131.073,134.273c0-31.111-32.8-51.5-65.537-51.5C32.664,82.769,0,103.258,0,134.273c0,11.734,5.139,23.208,14.471,32.31a1.406,1.406,0,0,1,.357,1.38C11.9,178.7,4.954,188.4,2.106,192.072a3.705,3.705,0,0,0,2.924,5.977h.1c13.939-.348,30.1-4.282,40.084-14.1a1.426,1.426,0,0,1,1.34-.362,82.373,82.373,0,0,0,18.987,2.193C98.4,185.777,131.073,165.3,131.073,134.273ZM47.7,178.728a6.39,6.39,0,0,0-5.991,1.66c-9.988,9.82-26.3,12.052-34.017,12.548,3.527-4.868,9.261-13.809,11.949-23.659a6.4,6.4,0,0,0-1.687-6.267C9.474,154.738,4.991,144.8,4.991,134.273c0-25.647,27.161-46.513,60.545-46.513s60.545,20.866,60.545,46.513-27.16,46.513-60.545,46.513A77.409,77.409,0,0,1,47.7,178.728Z" transform="translate(0 -82.769)"/>
    <path id="Path_61666" data-name="Path 61666" d="M365.313,216.362c14.55-7.353,23.237-19.886,23.237-33.524,0-19.276-17.424-35.746-41.432-39.164a2.5,2.5,0,0,0-.7,4.941c21.523,3.064,37.144,17.456,37.144,34.223,0,11.716-7.662,22.584-20.5,29.07a6.168,6.168,0,0,0-3.251,6.781,51.97,51.97,0,0,0,5.879,14.6c-14.737-2.453-20.323-9.524-22.089-12.585a6.157,6.157,0,0,0-5.33-3.061h-.2a59.382,59.382,0,0,1-8.235-.571,2.5,2.5,0,1,0-.694,4.942,64.426,64.426,0,0,0,8.929.619h.207a1.153,1.153,0,0,1,1,.564c6.759,11.713,22.3,14.7,28.662,15.446a3.622,3.622,0,0,0,3.471-5.553,49.568,49.568,0,0,1-6.718-15.443,1.173,1.173,0,0,1,.621-1.288Z" transform="translate(-218.189 -123.392)"/>
    <path id="Path_61667" data-name="Path 61667" d="M62.914,210.733a8.649,8.649,0,1,0,8.649,8.649A8.659,8.659,0,0,0,62.914,210.733Zm0,12.307a3.658,3.658,0,1,1,3.658-3.658A3.662,3.662,0,0,1,62.914,223.04Z" transform="translate(-36.209 -168.155)"/>
    <path id="Path_61668" data-name="Path 61668" d="M137.067,210.733a8.649,8.649,0,1,0,8.649,8.649A8.659,8.659,0,0,0,137.067,210.733Zm0,12.307a3.658,3.658,0,1,1,3.658-3.658A3.662,3.662,0,0,1,137.067,223.04Z" transform="translate(-85.689 -168.155)"/>
    <path id="Path_61669" data-name="Path 61669" d="M211.219,210.733a8.649,8.649,0,1,0,8.649,8.649A8.659,8.659,0,0,0,211.219,210.733Zm0,12.307a3.658,3.658,0,1,1,3.658-3.658A3.662,3.662,0,0,1,211.219,223.04Z" transform="translate(-135.168 -168.155)"/>
    <path id="Path_61670" data-name="Path 61670" d="M285.373,210.733a8.649,8.649,0,1,0,8.649,8.649A8.659,8.659,0,0,0,285.373,210.733Zm0,12.307a3.658,3.658,0,1,1,3.658-3.658A3.662,3.662,0,0,1,285.373,223.04Z" transform="translate(-184.648 -168.155)"/>
  </g>
</svg>
