<svg id="honesty_1_" data-name="honesty (1)" xmlns="http://www.w3.org/2000/svg" width="211.256" height="153.129" viewBox="0 0 211.256 153.129">
  <g id="Group_69635" data-name="Group 69635" transform="translate(4.128 1.102)">
    <path id="Path_61671" data-name="Path 61671" d="M296.456,228.714v2.857l.86,12.527-10.467,10.227s-49.7-56.356-48.934-56.484,20.5-5.893,20.5-5.893Z" transform="translate(-143.673 -142.755)" fill="#ffdfcf"/>
    <g id="Group_69634" data-name="Group 69634">
      <path id="Path_61672" data-name="Path 61672" d="M174.559,190.977l-38.143-38.143-26.122-26.907a17.938,17.938,0,0,0-6.3-4.078l-8.884-3.384-5.85-5.85L80.11,100.7l-40.8,40.9L51.9,154.93l12.517,12.517v8.087a11.04,11.04,0,0,0,3.233,7.806L82.22,197.074l37.632,28.913,9.848,9.848a7.93,7.93,0,0,0,11.213-11.217,7.93,7.93,0,1,0,11.217-11.213,7.93,7.93,0,1,0,11.213-11.217,7.93,7.93,0,1,0,11.217-11.213Z" transform="translate(-27.188 -89.232)" fill="#ffeee6"/>
      <g id="XMLID_442_" transform="translate(38.07 91.474)">
        <g id="Group_69630" data-name="Group 69630">
          <path id="Path_61673" data-name="Path 61673" d="M203.923,372.767a7.8,7.8,0,0,1,0,11.031l-8.331,8.331a7.805,7.805,0,0,1-11.031,0l-.186-.186a7.805,7.805,0,0,1,0-11.031l7.4-7.4.939-.935a7.793,7.793,0,0,1,11.027,0Z" transform="translate(-149.006 -338.84)" fill="#ffdfcf"/>
          <path id="Path_61674" data-name="Path 61674" d="M176.124,348.169a7.793,7.793,0,0,1,0,11.027l-7.4,7.4A7.8,7.8,0,0,1,157.7,355.566l7.4-7.4a7.79,7.79,0,0,1,11.027,0Z" transform="translate(-133.358 -324.52)" fill="#ffdfcf"/>
          <path id="Path_61675" data-name="Path 61675" d="M152.925,313.1a7.8,7.8,0,0,1,0,11.027l-3.473,3.473-7.4,7.4a7.8,7.8,0,1,1-11.031-11.031l6.7-6.7,4.167-4.163a7.8,7.8,0,0,1,11.031,0Z" transform="translate(-117.713 -303.95)" fill="#ffdfcf"/>
          <path id="Path_61676" data-name="Path 61676" d="M122.079,296.5a7.793,7.793,0,0,1,0,11.026l-6.7,6.7A7.8,7.8,0,1,1,104.351,303.2l6.7-6.7a7.791,7.791,0,0,1,11.027,0Z" transform="translate(-102.065 -294.213)" fill="#ffdfcf"/>
        </g>
      </g>
      <g id="XMLID_438_" transform="translate(38.07 91.475)">
        <g id="Group_69631" data-name="Group 69631">
          <path id="Path_61677" data-name="Path 61677" d="M189.622,386.16l7.4-7.4.939-.935a7.8,7.8,0,0,1,7.886-1.907,7.8,7.8,0,0,0-1.921-3.154l-.186-.186a7.793,7.793,0,0,0-11.027,0l-.939.934-7.4,7.4a7.805,7.805,0,0,0,0,11.031l.186.186a7.785,7.785,0,0,0,3.153,1.917A7.811,7.811,0,0,1,189.622,386.16Z" transform="translate(-149.005 -338.841)" fill="#ffcebf"/>
          <path id="Path_61678" data-name="Path 61678" d="M162.948,360.814l7.4-7.4a7.8,7.8,0,0,1,7.74-1.963,7.8,7.8,0,0,0-12.987-3.285l-7.4,7.4a7.8,7.8,0,0,0,3.286,12.989A7.791,7.791,0,0,1,162.948,360.814Z" transform="translate(-133.358 -324.521)" fill="#ffcebf"/>
          <path id="Path_61679" data-name="Path 61679" d="M136.273,329.213l6.7-6.7,4.167-4.164a7.8,7.8,0,0,1,7.742-1.962,7.8,7.8,0,0,0-12.99-3.285l-4.168,4.164-6.7,6.7a7.8,7.8,0,0,0,3.288,12.99A7.8,7.8,0,0,1,136.273,329.213Z" transform="translate(-117.713 -303.951)" fill="#ffcebf"/>
          <path id="Path_61680" data-name="Path 61680" d="M109.6,308.45l6.7-6.7a7.8,7.8,0,0,1,7.739-1.963,7.8,7.8,0,0,0-12.987-3.285l-6.7,6.7a7.8,7.8,0,0,0,3.286,12.988A7.8,7.8,0,0,1,109.6,308.45Z" transform="translate(-102.064 -294.214)" fill="#ffcebf"/>
        </g>
      </g>
      <g id="XMLID_440_" transform="translate(67.924 26.353)">
        <g id="Group_69632" data-name="Group 69632">
          <path id="Path_61681" data-name="Path 61681" d="M260.67,136.7l36.73,37.115-5.135,5.6-32.273,32.273-45.615-42.378H199.249l-9.782,8.041A9.291,9.291,0,0,1,177,163.61l11.791-11.791a5.436,5.436,0,0,1,3.845-1.6H223.77a6.137,6.137,0,0,1,2.993.781l11.618,6.479a1.4,1.4,0,0,0,1.654-.219l11.568-11.3Z" transform="translate(-174.273 -136.703)" fill="#ffdfcf"/>
        </g>
      </g>
      <g id="Group_69633" data-name="Group 69633" transform="translate(67.924 39.872)">
        <path id="Path_61682" data-name="Path 61682" d="M183.727,192.678a9.264,9.264,0,0,1,2.725-6.57l8.223-8.223a17.632,17.632,0,0,1,12.468-5.164h24.17l-4.548-2.536a6.136,6.136,0,0,0-2.993-.781H192.634a5.431,5.431,0,0,0-3.84,1.591L177,182.79a9.291,9.291,0,0,0,8.717,15.61A9.273,9.273,0,0,1,183.727,192.678Z" transform="translate(-174.273 -169.403)" fill="#ffcebf"/>
      </g>
      <path id="Path_61683" data-name="Path 61683" d="M418.141,140.083l-9.589,9.589a3.521,3.521,0,0,1-4.922.056l-41.081-39.241a3.521,3.521,0,0,1-.058-5.036L383.447,84.5a3.722,3.722,0,0,1,5.844.753l29.431,50.324a3.721,3.721,0,0,1-.581,4.51Z" transform="translate(-216.145 -79.089)" fill="#fd8087"/>
      <path id="Path_61684" data-name="Path 61684" d="M10.717,117.141a2.433,2.433,0,0,0-.019,3.46l14.217,14.217a5.513,5.513,0,0,0,7.8,0L72.328,95.2a5.513,5.513,0,0,0,0-7.8L58.6,73.676a2.433,2.433,0,0,0-3.422-.019Z" transform="translate(-9.985 -72.963)" fill="#99e6fc"/>
    </g>
  </g>
  <g id="Group_69636" data-name="Group 69636" transform="translate(0 0)">
    <path id="Path_61685" data-name="Path 61685" d="M171.36,217.05,154.4,234.012c-.222-.268-.456-.529-.707-.78l-21.905-21.905a3.1,3.1,0,1,0-4.385,4.385l21.905,21.905a4.829,4.829,0,1,1-6.83,6.83L130.3,232.274a3.1,3.1,0,1,0-4.385,4.385l12.172,12.172,0,0a4.829,4.829,0,0,1-6.831,6.828L119.09,243.489a3.1,3.1,0,1,0-4.385,4.385l12.172,12.172a4.829,4.829,0,0,1-6.83,6.83L107.875,254.7a3.1,3.1,0,1,0-4.385,4.385l12.172,12.172a4.829,4.829,0,1,1-6.829,6.83l-7.886-7.885a10.917,10.917,0,0,0-1.638-13.315l-.187-.187a10.882,10.882,0,0,0-8.8-3.131,10.884,10.884,0,0,0-8.256-9.832,10.907,10.907,0,0,0-14.885-13.754,10.892,10.892,0,0,0-18.189-4.736l-1.279,1.279-.932-.932a7.886,7.886,0,0,1-2.325-5.613v-8.087a3.1,3.1,0,0,0-.908-2.193L30.311,196.465l3.722-3.723a3.1,3.1,0,0,0-4.385-4.385l-4.986,4.987a2.415,2.415,0,0,1-3.411,0L5.294,177.387a3.1,3.1,0,1,0-4.385,4.385l15.957,15.957a8.56,8.56,0,0,0,8.189,2.25l13.2,13.2v6.8a14.049,14.049,0,0,0,4.141,10l.933.933-1.038,1.038A10.894,10.894,0,0,0,50,250.551c.044,0,.088,0,.133,0,0,.046,0,.091,0,.138a10.9,10.9,0,0,0,10.9,10.9c.046,0,.092,0,.138,0a10.877,10.877,0,0,0,10.891,11.026c.046,0,.092,0,.137,0a10.865,10.865,0,0,0,3.184,7.845l.187.187a10.9,10.9,0,0,0,15.414,0l5.815-5.815,7.655,7.655a11.023,11.023,0,0,0,18.821-7.988c.065,0,.129,0,.193,0a11.018,11.018,0,0,0,11.022-11.224c.065,0,.129,0,.194,0a11.022,11.022,0,0,0,11.031-11.026c0-.065,0-.129,0-.194.063,0,.126,0,.189,0a11.01,11.01,0,0,0,11-11.765l18.856-18.856a3.1,3.1,0,0,0-4.387-4.386ZM46.676,242.978a4.7,4.7,0,0,1,0-6.643l6.7-6.7a4.7,4.7,0,1,1,6.643,6.643l-6.7,6.7A4.7,4.7,0,0,1,46.676,242.978Zm14.35,12.4a4.7,4.7,0,0,1-3.321-8.019l6.7-6.7,4.167-4.167a4.7,4.7,0,0,1,6.642,6.643L64.347,254.007a4.667,4.667,0,0,1-3.321,1.375Zm7.707,9.652a4.7,4.7,0,0,1,0-6.643l7.4-7.4a4.7,4.7,0,0,1,6.644,6.642l-7.4,7.4A4.7,4.7,0,0,1,68.733,265.035ZM86.591,276.25a4.7,4.7,0,0,1-6.642,0l-.186-.186a4.7,4.7,0,0,1,0-6.643l7.4-7.4.007-.007.928-.929a4.7,4.7,0,0,1,6.643,0l.186.186a4.7,4.7,0,0,1,0,6.643Z" transform="translate(0 -132.578)"/>
    <path id="Path_61686" data-name="Path 61686" d="M264.378,128.171a3.1,3.1,0,0,0-4.385,0l-11.62,11.62a.422.422,0,0,1-.587.007l-41.081-39.241a.42.42,0,0,1-.007-.6L231.064,75.59a3.1,3.1,0,0,0-4.385-4.385L202.313,95.571a6.607,6.607,0,0,0-.574,8.7L190.589,115.2l-10.506-5.859a9.259,9.259,0,0,0-4.5-1.171H145.73l-2.272-2.271a20.9,20.9,0,0,0-7.385-4.783l-8.263-3.148-3.819-3.819a8.621,8.621,0,0,0-1.3-10.5L110.253,71.205a3.1,3.1,0,1,0-4.385,4.385L118.31,88.033a2.415,2.415,0,0,1,0,3.411L93.023,116.731a3.1,3.1,0,0,0,4.386,4.385L119.8,98.728l4.1,4.1a3.106,3.106,0,0,0,1.089.705l8.883,3.384a14.737,14.737,0,0,1,5.091,3.262c-.188.158-.373.322-.549.5l-11.793,11.794a12.39,12.39,0,0,0,16.63,18.333l8.925-7.337h9.3l10.622,10.622a3.1,3.1,0,0,0,4.386-4.385l-7.674-7.674a3.1,3.1,0,0,0-2.613-4.765H151.057a3.1,3.1,0,0,0-1.969.706l-9.782,8.042A6.189,6.189,0,0,1,131,126.854l11.793-11.794a2.321,2.321,0,0,1,1.653-.685H175.58a3.045,3.045,0,0,1,1.481.385l11.619,6.48a4.523,4.523,0,0,0,5.336-.714l12.146-11.912,33.44,31.942-4.868,4.868a3.1,3.1,0,0,0,4.386,4.385l5.008-5.008a6.655,6.655,0,0,0,8.629-.626l11.621-11.62A3.1,3.1,0,0,0,264.378,128.171Z" transform="translate(-54.03 -70.297)"/>
  </g>
</svg>
