<svg id="private-garage_1_" data-name="private-garage (1)" xmlns="http://www.w3.org/2000/svg" width="112.861" height="110.365" viewBox="0 0 112.861 110.365">
  <path id="Path_61716" data-name="Path 61716" d="M113.4,130.786A5.629,5.629,0,0,0,111.9,131l-1.893.522-2.789-6.793a12.042,12.042,0,0,0-10.3-6.906H66.314a12.042,12.042,0,0,0-10.3,6.907l-2.784,6.78L51.382,131a5.63,5.63,0,0,0-1.494-.209,4.076,4.076,0,0,0-4.238,4.189,5.29,5.29,0,0,0,4.119,5.019,42.723,42.723,0,0,0-2.31,12.5v14.455a5.6,5.6,0,0,0,5.6,5.6h2.052a5.6,5.6,0,0,0,5.6-5.6v-2.7h41.831v2.7a5.6,5.6,0,0,0,5.6,5.6h2.053a5.6,5.6,0,0,0,5.6-5.6V152.5a42.741,42.741,0,0,0-2.306-12.493,5.294,5.294,0,0,0,4.165-5.03A4.076,4.076,0,0,0,113.4,130.786Zm-56.69,5.641,4.549-11.082a7.237,7.237,0,0,1,6.177-4.142H95.8a7.237,7.237,0,0,1,6.177,4.142l4.549,11.082c.935,2.278-.314,4.142-2.777,4.142H59.485C57.023,140.569,55.773,138.7,56.708,136.427Zm12.061,18.02a2.245,2.245,0,0,1-2.239,2.238H57.247a2.245,2.245,0,0,1-2.238-2.238v-3.7a2.245,2.245,0,0,1,2.238-2.238h9.284a2.245,2.245,0,0,1,2.239,2.238Zm39.357,0a2.245,2.245,0,0,1-2.238,2.238H96.6a2.245,2.245,0,0,1-2.238-2.238v-3.7a2.245,2.245,0,0,1,2.238-2.238h9.283a2.245,2.245,0,0,1,2.238,2.238Z" transform="translate(-25.212 -66.32)"/>
  <path id="Path_61717" data-name="Path 61717" d="M110.377,33.568,58.928,3.41a5.335,5.335,0,0,0-4.995,0L2.484,33.568A5.406,5.406,0,0,0,0,37.9V109.8a3.362,3.362,0,0,0,3.358,3.358H9.138A3.362,3.362,0,0,0,12.5,109.8V48.959a1.121,1.121,0,0,1,1.119-1.119h85.63a1.121,1.121,0,0,1,1.119,1.119V109.8a3.362,3.362,0,0,0,3.358,3.358H109.5a3.362,3.362,0,0,0,3.358-3.358V37.9A5.4,5.4,0,0,0,110.377,33.568Z" transform="translate(0 -2.789)"/>
</svg>
