<svg id="route_1_" data-name="route (1)" xmlns="http://www.w3.org/2000/svg" width="159.399" height="159.515" viewBox="0 0 159.399 159.515">
  <path id="Path_61624" data-name="Path 61624" d="M50.673,15.3a24.768,24.768,0,0,1,2.78,31.792,130.837,130.837,0,0,1-16,18.633,6.287,6.287,0,0,1-8.712,0A132.423,132.423,0,0,1,12.753,47.09,24.768,24.768,0,0,1,15.533,15.3h-.01a24.867,24.867,0,0,1,35.15,0Z" transform="translate(-5.562 -5.358)" fill="#ff6d7a"/>
  <path id="Path_61625" data-name="Path 61625" d="M61.184,50.146A10.879,10.879,0,1,1,50.3,61.024,10.931,10.931,0,0,1,61.184,50.146Z" transform="translate(-33.653 -33.49)" fill="#cbe3fa"/>
  <path id="Path_61626" data-name="Path 61626" d="M43.419,10.235a2.99,2.99,0,0,1-1.66,5.689,24.856,24.856,0,0,0-27.5,17.835A2.987,2.987,0,0,1,8.4,33.1a23.36,23.36,0,0,1,7.223-17.8h-.01A24.8,24.8,0,0,1,43.419,10.235Z" transform="translate(-5.652 -5.364)" fill="#ff8c95"/>
  <path id="Path_61627" data-name="Path 61627" d="M249.738,306.184h-10l-5.5-17.354a7.969,7.969,0,0,0-7.6-5.563H190.123a7.97,7.97,0,0,0-7.058,4.268c-11.732,22.382-9.468,18.108-9.778,18.65H159.064a7.973,7.973,0,0,0-7.971,7.971v10.3a7.973,7.973,0,0,0,7.971,7.971h90.674a7.973,7.973,0,0,0,7.971-7.971v-10.3a7.973,7.973,0,0,0-7.971-7.971Z" transform="translate(-100.966 -189.182)" fill="#ff6d7a"/>
  <path id="Path_61628" data-name="Path 61628" d="M360.032,289.908h-9.5l2.092-6.643c7.862,0,7.332,0,7.613.01C364.526,283.451,364.327,289.908,360.032,289.908Z" transform="translate(-234.164 -189.181)" fill="#ff8c95"/>
  <path id="Path_61629" data-name="Path 61629" d="M187.505,357.13a3.321,3.321,0,0,1-2.941,1.778h-12.21a7.978,7.978,0,0,0-7.975,7.978c0,6.094-.013,8.736,0,10.02a1.582,1.582,0,0,1-1.584,1.6h-3.73a7.971,7.971,0,0,1-7.971-7.971v-10.3a7.971,7.971,0,0,1,7.971-7.971h25.5A3.321,3.321,0,0,1,187.505,357.13Z" transform="translate(-100.966 -235.264)" fill="#ff8c95"/>
  <path id="Path_61630" data-name="Path 61630" d="M264.1,283.266c-2.627,8.338-1.393,4.428-5.464,17.341a7.971,7.971,0,0,1-7.6,5.577H218.023c-.072-.036-.771,1.363,9.718-18.65a7.969,7.969,0,0,1,7.058-4.268Z" transform="translate(-145.643 -189.182)" fill="#cbe3fa"/>
  <path id="Path_61631" data-name="Path 61631" d="M264.081,283.266l-1.507,4.784a2.657,2.657,0,0,1-2.534,1.859H248.062A7.969,7.969,0,0,0,241,294.177l-5.548,10.583a2.657,2.657,0,0,1-2.353,1.424c-16.263,0-15.079.012-15.149-.023l9.765-18.626a7.969,7.969,0,0,1,7.058-4.268Z" transform="translate(-145.62 -189.182)" fill="#eef7ff"/>
  <circle id="Ellipse_679" data-name="Ellipse 679" cx="13.618" cy="13.618" r="13.618" transform="translate(117.883 129.623)" fill="#42434d"/>
  <circle id="Ellipse_680" data-name="Ellipse 680" cx="13.618" cy="13.618" r="13.618" transform="translate(61.751 129.623)" fill="#42434d"/>
  <path id="Path_61632" data-name="Path 61632" d="M199.333,390.276a3.386,3.386,0,0,1,1.725,6.352,13.6,13.6,0,0,0-7.016,11.911,3.386,3.386,0,0,1-6.355,1.788A13.635,13.635,0,0,1,199.333,390.276Z" transform="translate(-124.318 -260.649)" fill="#585966"/>
  <path id="Path_61633" data-name="Path 61633" d="M368.333,390.276a3.386,3.386,0,0,1,1.725,6.352,13.6,13.6,0,0,0-7.016,11.911,3.386,3.386,0,0,1-6.355,1.788A13.635,13.635,0,0,1,368.333,390.276Z" transform="translate(-237.187 -260.649)" fill="#585966"/>
  <g id="Group_69624" data-name="Group 69624" transform="translate(0 0)">
    <path id="Path_61634" data-name="Path 61634" d="M244.395,298.184h-8.059l-4.915-15.5a10.587,10.587,0,0,0-10.133-7.419H184.779a10.6,10.6,0,0,0-9.411,5.691c-5.572,10.631-7.988,15.25-9.021,17.226H153.72a10.64,10.64,0,0,0-10.628,10.628v10.3a10.64,10.64,0,0,0,10.628,10.628h1.217a16.275,16.275,0,1,0,0-5.314H153.72a5.32,5.32,0,0,1-5.314-5.314v-10.3a5.32,5.32,0,0,1,5.314-5.314h47.3a10.588,10.588,0,0,0,10.137-7.435l1.852-5.878a2.657,2.657,0,1,0-5.068-1.6l-1.852,5.877a5.294,5.294,0,0,1-5.068,3.718H172.343c1.408-2.691,3.771-7.205,7.731-14.759a5.3,5.3,0,0,1,4.7-2.844h36.509a5.293,5.293,0,0,1,5.066,3.709l5.5,17.354a2.658,2.658,0,0,0,2.533,1.854h10a5.32,5.32,0,0,1,5.314,5.314v10.3a5.286,5.286,0,0,1-.851,2.884,2.657,2.657,0,1,0,4.458,2.893,10.588,10.588,0,0,0,1.707-5.777v-10.3A10.639,10.639,0,0,0,244.395,298.184Zm-73.4,17.935a10.961,10.961,0,1,1-10.961,10.961A10.973,10.973,0,0,1,170.992,316.119Z" transform="translate(-95.623 -183.839)"/>
    <path id="Path_61635" data-name="Path 61635" d="M42.655,48.893a2.658,2.658,0,0,0-3.746.3c-2.729,3.21-5.653,6.324-8.69,9.255a3.589,3.589,0,0,1-5.011,0A128.613,128.613,0,0,1,9.533,40.2a22.181,22.181,0,1,1,38.126-2.96,2.657,2.657,0,1,0,4.765,2.353A27.51,27.51,0,0,0,8.254,8.058a27.365,27.365,0,0,0-3.06,35.208,134.928,134.928,0,0,0,16.312,19.01,8.9,8.9,0,0,0,12.4,0c3.163-3.052,6.208-6.294,9.05-9.637A2.657,2.657,0,0,0,42.655,48.893Z" transform="translate(-0.173 0.001)"/>
    <path id="Path_61636" data-name="Path 61636" d="M55.844,63.9a2.657,2.657,0,1,0,0,5.314A13.538,13.538,0,1,0,42.306,55.678a2.657,2.657,0,1,0,5.314,0A8.223,8.223,0,1,1,55.844,63.9Z" transform="translate(-28.312 -28.143)"/>
    <path id="Path_61637" data-name="Path 61637" d="M328.553,382.266A16.3,16.3,0,0,0,312.5,395.884H297.622a2.657,2.657,0,1,0,0,5.314h17.314a2.657,2.657,0,0,0,2.657-2.657,10.961,10.961,0,1,1,4.275,8.685,2.657,2.657,0,0,0-3.246,4.208,16.123,16.123,0,0,0,9.931,3.382,16.275,16.275,0,1,0,0-32.55Z" transform="translate(-197.053 -255.3)"/>
    <path id="Path_61638" data-name="Path 61638" d="M70.492,380.913a24.39,24.39,0,0,1-5.995-.6,2.657,2.657,0,1,0-1.2,5.178,29.517,29.517,0,0,0,7.191.741,2.657,2.657,0,0,0,0-5.314Z" transform="translate(-40.958 -253.947)"/>
    <path id="Path_61639" data-name="Path 61639" d="M276.059,94.58h13.1a2.657,2.657,0,0,0,0-5.314h-13.1a2.657,2.657,0,0,0,0,5.314Z" transform="translate(-182.652 -59.617)"/>
    <path id="Path_61640" data-name="Path 61640" d="M123.721,226.923a2.657,2.657,0,0,0-2.657-2.657h-13.1a2.657,2.657,0,0,0,0,5.314h13.1A2.657,2.657,0,0,0,123.721,226.923Z" transform="translate(-70.385 -149.778)"/>
    <path id="Path_61641" data-name="Path 61641" d="M373.409,98.11a19.737,19.737,0,0,1,9.236,6.663,2.657,2.657,0,1,0,4.215-3.236,25.033,25.033,0,0,0-11.717-8.45,2.657,2.657,0,0,0-1.734,5.023Z" transform="translate(-248.246 -62.071)"/>
    <path id="Path_61642" data-name="Path 61642" d="M402.728,173.719a19.682,19.682,0,0,1-5.605,9.907,2.657,2.657,0,1,0,3.678,3.836,24.98,24.98,0,0,0,7.111-12.576,2.657,2.657,0,1,0-5.185-1.167Z" transform="translate(-264.734 -114.634)"/>
    <path id="Path_61643" data-name="Path 61643" d="M302.57,226.923a2.657,2.657,0,0,0,2.657,2.657h13.1a2.657,2.657,0,0,0,0-5.314h-13.1A2.657,2.657,0,0,0,302.57,226.923Z" transform="translate(-202.132 -149.778)"/>
    <path id="Path_61644" data-name="Path 61644" d="M203.936,226.923a2.657,2.657,0,0,0,2.657,2.657h13.1a2.657,2.657,0,0,0,0-5.314h-13.1A2.657,2.657,0,0,0,203.936,226.923Z" transform="translate(-136.258 -149.778)"/>
    <path id="Path_61645" data-name="Path 61645" d="M5.741,313.122a2.657,2.657,0,0,0-5.291.495,28.871,28.871,0,0,0,4.817,13.447,2.657,2.657,0,1,0,4.4-2.977A23.551,23.551,0,0,1,5.741,313.122Z" transform="translate(-0.35 -207.512)"/>
    <path id="Path_61646" data-name="Path 61646" d="M31.672,232.6a2.658,2.658,0,0,0-3.507-1.351,29.048,29.048,0,0,0-11.215,8.832,2.657,2.657,0,0,0,4.214,3.238,23.717,23.717,0,0,1,9.156-7.212A2.657,2.657,0,0,0,31.672,232.6Z" transform="translate(-11.007 -154.289)"/>
    <path id="Path_61647" data-name="Path 61647" d="M196.75,94.58h6.643a2.657,2.657,0,0,0,0-5.314H196.75a2.657,2.657,0,1,0,0,5.314Z" transform="translate(-129.684 -59.617)"/>
  </g>
</svg>
