<svg id="search_2_" data-name="search (2)" xmlns="http://www.w3.org/2000/svg" width="115.772" height="115.772" viewBox="0 0 115.772 115.772">
  <g id="Group_69639" data-name="Group 69639" transform="translate(1.809 1.809)">
    <path id="Path_61687" data-name="Path 61687" d="M0,0H9.069V12.866H0Z" transform="translate(82.809 81.101) rotate(-45)" fill="#e6e2e6"/>
    <path id="Path_61688" data-name="Path 61688" d="M0,0H9.069V12.866H0Z" transform="translate(82.809 81.101) rotate(-45)" fill="#ecdaec"/>
    <path id="Path_61689" data-name="Path 61689" d="M0,0H4.317V12.866H0Z" transform="translate(82.809 81.101) rotate(-45)" fill="#e2cbe2"/>
    <path id="Path_61690" data-name="Path 61690" d="M8,11.392A3.392,3.392,0,0,1,11.392,8H68.474L89.488,29.015v87.748a3.392,3.392,0,0,1-3.392,3.392h-74.7A3.392,3.392,0,0,1,8,116.762Z" transform="translate(-8 -8)" fill="#f9f6f6"/>
    <path id="Path_61691" data-name="Path 61691" d="M86.1,474.392h-74.7A3.392,3.392,0,0,1,8,471v4.07a3.392,3.392,0,0,0,3.392,3.392H86.1a3.392,3.392,0,0,0,3.392-3.392V471A3.392,3.392,0,0,1,86.1,474.392Z" transform="translate(-8 -366.308)" fill="#ecdaec"/>
    <g id="Group_69637" data-name="Group 69637" transform="translate(41.03)">
      <path id="Path_61692" data-name="Path 61692" d="M278.837,29.015H296.46L275.445,8V25.623A3.392,3.392,0,0,0,278.837,29.015Z" transform="translate(-256.001 -8)" fill="#e2cbe2"/>
      <path id="Path_61693" data-name="Path 61693" d="M278.837,29.015H296.46L275.445,8V25.623A3.392,3.392,0,0,0,278.837,29.015Z" transform="translate(-256.001 -8)" fill="#e2cbe2"/>
      <circle id="Ellipse_688" data-name="Ellipse 688" cx="28.148" cy="28.148" r="28.148" transform="translate(0 32.889)" fill="#e2cbe2"/>
    </g>
    <path id="Path_61694" data-name="Path 61694" d="M237.506,286.806a28.148,28.148,0,0,1-47.978-17.868,28.148,28.148,0,1,0,56.149,0A28.038,28.038,0,0,1,237.506,286.806Z" transform="translate(-148.424 -209.936)" fill="#dab9d8"/>
    <circle id="Ellipse_689" data-name="Ellipse 689" cx="20.38" cy="20.38" r="20.38" transform="translate(48.797 40.657)" fill="#ffe27a"/>
    <path id="Path_61695" data-name="Path 61695" d="M258.6,281.313a20.379,20.379,0,0,1-34.688-12.376,20.379,20.379,0,1,0,40.554,0A20.294,20.294,0,0,1,258.6,281.313Z" transform="translate(-175.015 -209.935)" fill="#f9cf58"/>
    <path id="Path_61696" data-name="Path 61696" d="M277.67,259.5a3.551,3.551,0,0,1-2.484-1.009l-4.677-4.548a3.564,3.564,0,0,1,4.969-5.11L277.6,250.9l6.386-6.548a3.564,3.564,0,1,1,5.1,4.976l-8.87,9.1A3.552,3.552,0,0,1,277.67,259.5Z" transform="translate(-210.316 -190.074)" fill="#98db7c"/>
    <path id="Path_61697" data-name="Path 61697" d="M289.1,250.479l-8.87,9.1a3.563,3.563,0,0,1-5.035.067l-4.677-4.548a3.579,3.579,0,0,1-.438-.518,3.561,3.561,0,0,0,.438,4.588l4.677,4.548a3.563,3.563,0,0,0,5.035-.067l8.87-9.1a3.563,3.563,0,0,0,.371-4.525A3.589,3.589,0,0,1,289.1,250.479Z" transform="translate(-210.325 -195.298)" fill="#82d361"/>
    <path id="Path_61698" data-name="Path 61698" d="M417.888,372.946l-8.942,8.942,10.7,10.7a6.323,6.323,0,1,0,8.942-8.942Z" transform="translate(-318.285 -290.426)" fill="#ff4755"/>
    <path id="Path_61699" data-name="Path 61699" d="M422.694,409.689l-10.7-10.7-3.052,3.052,10.7,10.7a6.327,6.327,0,0,0,10.2-1.8A6.325,6.325,0,0,1,422.694,409.689Z" transform="translate(-318.285 -310.583)" fill="#fc2b3a"/>
    <g id="Group_69638" data-name="Group 69638" transform="translate(11.597 31.213)">
      <path id="Path_61700" data-name="Path 61700" d="M68.8,157.653H61.383a2.1,2.1,0,0,1-2.1-2.1v-7.419a2.1,2.1,0,0,1,2.1-2.1H68.8a2.1,2.1,0,0,1,2.1,2.1v7.419a2.1,2.1,0,0,1-2.1,2.1Z" transform="translate(-59.286 -146.039)" fill="#98db7c"/>
      <path id="Path_61701" data-name="Path 61701" d="M68.8,262.815H61.383a2.1,2.1,0,0,1-2.1-2.1V253.3a2.1,2.1,0,0,1,2.1-2.1H68.8a2.1,2.1,0,0,1,2.1,2.1v7.419a2.1,2.1,0,0,1-2.1,2.1Z" transform="translate(-59.286 -227.422)" fill="#98db7c"/>
      <path id="Path_61702" data-name="Path 61702" d="M68.8,370.112H61.383a2.1,2.1,0,0,1-2.1-2.1V360.6a2.1,2.1,0,0,1,2.1-2.1H68.8a2.1,2.1,0,0,1,2.1,2.1v7.419a2.1,2.1,0,0,1-2.1,2.1Z" transform="translate(-59.286 -310.457)" fill="#98db7c"/>
    </g>
    <path id="Path_61703" data-name="Path 61703" d="M68.8,172.225H61.383a2.1,2.1,0,0,1-2.1-2.1v4.07a2.1,2.1,0,0,0,2.1,2.1H68.8a2.1,2.1,0,0,0,2.1-2.1v-4.07a2.1,2.1,0,0,1-2.1,2.1Z" transform="translate(-47.689 -133.468)" fill="#82d361"/>
    <path id="Path_61704" data-name="Path 61704" d="M68.8,277.386H61.383a2.1,2.1,0,0,1-2.1-2.1v4.07a2.1,2.1,0,0,0,2.1,2.1H68.8a2.1,2.1,0,0,0,2.1-2.1v-4.07a2.1,2.1,0,0,1-2.1,2.1Z" transform="translate(-47.689 -214.85)" fill="#82d361"/>
    <path id="Path_61705" data-name="Path 61705" d="M68.8,384.683H61.383a2.1,2.1,0,0,1-2.1-2.1v4.07a2.1,2.1,0,0,0,2.1,2.1H68.8a2.1,2.1,0,0,0,2.1-2.1v-4.07a2.1,2.1,0,0,1-2.1,2.1Z" transform="translate(-47.689 -297.886)" fill="#82d361"/>
    <path id="Path_61706" data-name="Path 61706" d="M275.445,85.937v4.07a3.392,3.392,0,0,0,3.392,3.392H296.46v-4.07H278.837A3.392,3.392,0,0,1,275.445,85.937Z" transform="translate(-214.971 -68.314)" fill="#ecdaec"/>
  </g>
  <g id="Group_69640" data-name="Group 69640" transform="translate(0 0)">
    <path id="Path_61707" data-name="Path 61707" d="M271.942,255.395a5.231,5.231,0,0,0,3.774-1.591l8.889-9.113a5.27,5.27,0,0,0-7.547-7.358l-5.214,5.346-.913-.888a5.27,5.27,0,1,0-7.348,7.556l4.687,4.557A5.243,5.243,0,0,0,271.942,255.395Zm-6.028-11.131a1.874,1.874,0,0,1,2.647-.037l2.13,2.071a1.7,1.7,0,0,0,2.4-.032l6.4-6.561a1.872,1.872,0,0,1,2.68,2.613l-8.889,9.113a1.88,1.88,0,0,1-2.645.035l-4.687-4.557A1.874,1.874,0,0,1,265.914,244.264Z" transform="translate(-202.748 -182.439)"/>
    <path id="Path_61708" data-name="Path 61708" d="M223.38,213.57a1.7,1.7,0,0,0-2.713,2.047,22.4,22.4,0,0,0,2.034,2.337,22.1,22.1,0,1,0-5.431-8.9,1.7,1.7,0,0,0,3.238-1.033,18.738,18.738,0,1,1,4.6,7.527A19.035,19.035,0,0,1,223.38,213.57Z" transform="translate(-167.322 -139.457)"/>
    <path id="Path_61709" data-name="Path 61709" d="M113.433,93.9,102.712,83.18a1.7,1.7,0,0,0-2.4,0l-.066.066L96.116,79.12a29.854,29.854,0,0,0,4.751-14.372,1.7,1.7,0,0,0-3.392-.214A26.484,26.484,0,0,1,71.047,89.347h-.161a26.492,26.492,0,1,1,26.225-31.19,1.7,1.7,0,0,0,3.346-.6,29.924,29.924,0,0,0-15.4-21.106V22.755a1.72,1.72,0,0,0-.5-1.2L63.5.5A1.722,1.722,0,0,0,62.3,0H5.1A5.1,5.1,0,0,0,0,5.1V19.38a1.7,1.7,0,0,0,3.4,0V5.1A1.7,1.7,0,0,1,5.1,3.4H60.6V19.356a5.1,5.1,0,0,0,5.1,5.1h15.96V34.911a30.028,30.028,0,0,0-10.313-1.939.37.37,0,0,0-.05-.006H33.353a1.7,1.7,0,1,0,0,3.4H57.146a29.786,29.786,0,0,0-6.779,4.867H33.353a1.7,1.7,0,1,0,0,3.4H47.308a29.579,29.579,0,0,0-5.577,12.149H33.353a1.7,1.7,0,1,0,0,3.4h7.882q-.117,1.329-.12,2.679,0,1.107.08,2.2H33.353a1.7,1.7,0,1,0,0,3.4h8.285a29.576,29.576,0,0,0,5.676,12.633H33.353a1.7,1.7,0,1,0,0,3.4H50.374a29.783,29.783,0,0,0,6.768,4.859H33.352a1.7,1.7,0,1,0,0,3.4H71.021A30.047,30.047,0,0,0,81.658,90.8v19.874a1.7,1.7,0,0,1-1.7,1.7H5.1a1.7,1.7,0,0,1-1.7-1.7v-84.5a1.7,1.7,0,0,0-3.4,0v84.5a5.1,5.1,0,0,0,5.1,5.1H79.959a5.1,5.1,0,0,0,5.1-5.1V89.262q1.138-.6,2.231-1.312l4.125,4.124a1.714,1.714,0,0,0-.066,2.469l10.722,10.72A8.035,8.035,0,0,0,113.433,93.9ZM65.7,21.056a1.7,1.7,0,0,1-1.7-1.7V5.8L79.255,21.056ZM90.06,85.915q1.088-.9,2.108-1.915t1.915-2.107l3.756,3.756L93.816,89.67Zm20.969,16.944a4.659,4.659,0,0,1-6.557,0l-9.52-9.519,6.558-6.557,9.52,9.519A4.658,4.658,0,0,1,111.029,102.859Z" transform="translate(0.001 0)"/>
    <path id="Path_61710" data-name="Path 61710" d="M55.194,153.345h7.435a3.805,3.805,0,0,0,3.8-3.8v-7.434a3.805,3.805,0,0,0-3.8-3.8H55.194a3.805,3.805,0,0,0-3.8,3.8v7.434A3.805,3.805,0,0,0,55.194,153.345Zm-.4-11.234a.4.4,0,0,1,.4-.4h7.435a.4.4,0,0,1,.4.4v7.434a.4.4,0,0,1-.4.4H55.194a.4.4,0,0,1-.4-.4Z" transform="translate(-39.772 -107.036)"/>
    <path id="Path_61711" data-name="Path 61711" d="M51.393,254.912a3.805,3.805,0,0,0,3.8,3.8h7.435a3.805,3.805,0,0,0,3.8-3.8v-7.434a3.805,3.805,0,0,0-3.8-3.8H55.194a3.805,3.805,0,0,0-3.8,3.8Zm3.4-7.434a.4.4,0,0,1,.4-.4h7.435a.4.4,0,0,1,.4.4v7.434a.4.4,0,0,1-.4.4H55.194a.4.4,0,0,1-.4-.4Z" transform="translate(-39.772 -188.578)"/>
    <path id="Path_61712" data-name="Path 61712" d="M51.393,362.42a3.805,3.805,0,0,0,3.8,3.8h7.435a3.805,3.805,0,0,0,3.8-3.8v-7.434a3.805,3.805,0,0,0-3.8-3.8H55.194a3.805,3.805,0,0,0-3.8,3.8Zm3.4-7.434a.4.4,0,0,1,.4-.4h7.435a.4.4,0,0,1,.4.4v7.434a.4.4,0,0,1-.4.4H55.194a.4.4,0,0,1-.4-.4Z" transform="translate(-39.772 -271.776)"/>
  </g>
</svg>
