<svg xmlns="http://www.w3.org/2000/svg" width="81.763" height="92.398" viewBox="0 0 81.763 92.398">
  <path id="Subtraction_2" data-name="Subtraction 2" d="M79.085,92.4H2.657A2.653,2.653,0,0,1,0,89.755V34.908H81.742V89.755A2.653,2.653,0,0,1,79.085,92.4Zm-56.4-31.582a3.2,3.2,0,0,0-2.112.8A3.159,3.159,0,0,0,20.3,66.09l13.13,14.755L61.354,52.46a3.159,3.159,0,0,0-.049-4.485,3.2,3.2,0,0,0-4.51.049L33.665,71.537l-8.588-9.651A3.2,3.2,0,0,0,22.688,60.816ZM81.763,29.643H0V14.293A2.653,2.653,0,0,1,2.657,11.65H9.29v3.616a8.045,8.045,0,0,0,8.057,8.013h.468a8.045,8.045,0,0,0,8.057-8.013V11.629H55.806v3.616a8.045,8.045,0,0,0,8.057,8.013h.468a8.045,8.045,0,0,0,8.057-8.013V11.629h6.633a2.762,2.762,0,0,1,1.953.785,2.618,2.618,0,0,1,.789,1.879Zm-17.9-11.65a2.7,2.7,0,0,1-1.923-.808,2.739,2.739,0,0,1-.8-1.941V2.749A2.724,2.724,0,0,1,61.95.8,2.755,2.755,0,0,1,63.906,0h.468a2.755,2.755,0,0,1,1.956.8,2.724,2.724,0,0,1,.808,1.945v12.5a2.719,2.719,0,0,1-.816,1.945,2.755,2.755,0,0,1-1.948.8h-.505Zm-46.537,0a2.694,2.694,0,0,1-1.93-.808,2.745,2.745,0,0,1-.8-1.941V2.749A2.719,2.719,0,0,1,15.421.8,2.755,2.755,0,0,1,17.369,0h.468a2.754,2.754,0,0,1,1.956.8A2.724,2.724,0,0,1,20.6,2.749v12.5a2.724,2.724,0,0,1-.808,1.945,2.754,2.754,0,0,1-1.956.8h-.506Z"/>
</svg>
